<svg class="ldi-f00uly" width="289px"  height="289px"  xmlns="http://www.w3.org/2000/svg" xmlns:xlink="http://www.w3.org/1999/xlink" viewBox="0 0 100 100" preserveAspectRatio="xMidYMid" style="background: none;"><!--?xml version="1.0" encoding="utf-8"?--><!--Generator: Adobe Illustrator 21.0.0, SVG Export Plug-In . SVG Version: 6.00 Build 0)--><svg version="1.1" id="圖層_1" xmlns="http://www.w3.org/2000/svg" xmlns:xlink="http://www.w3.org/1999/xlink" x="0px" y="0px" viewBox="0 0 100 100" style="transform-origin: 50px 50px 0px;" xml:space="preserve"><g style="transform-origin: 50px 50px 0px;"><g style="transform-origin: 50px 50px 0px; transform: scale(0.62);"><g style="transform-origin: 50px 50px 0px;"><g><style type="text/css" class="ld ld-breath" style="transform-origin: 50px 50px 0px; animation-duration: 6.1s; animation-delay: -6.1s; animation-direction: normal;">.st0{fill:#333333;}</style><g style="transform-origin: 50px 50px 0px;"><g id="XMLID_280_"><g class="ld ld-breath" style="transform-origin: 50px 50px 0px; animation-duration: 6.1s; animation-delay: -5.978s; animation-direction: normal;"><polygon id="XMLID_1713_" class="st0" points="42,8 42.3,7.8 42.5,7.7 42.2,7.7 42,7.8 41.8,7.8 41.7,7.9 41.4,8 41.3,8.1 41.6,8.1 	" fill="#049ccc" style="fill: rgb(4, 156, 204);"></polygon></g><g class="ld ld-breath" style="transform-origin: 50px 50px 0px; animation-duration: 6.1s; animation-delay: -5.856s; animation-direction: normal;"><polygon id="XMLID_1712_" class="st0" points="22.7,24.2 22.9,23.9 22.7,24 22.6,24.2 22.6,24.7 22.7,24.8 23,24.6 22.8,24.5 	" fill="#049ccc" style="fill: rgb(4, 156, 204);"></polygon></g><g class="ld ld-breath" style="transform-origin: 50px 50px 0px; animation-duration: 6.1s; animation-delay: -5.734s; animation-direction: normal;"><polygon id="XMLID_1711_" class="st0" points="41.5,8.4 41.8,8.3 41.9,8.2 41.9,8.1 41.6,8.2 41.3,8.2 41.2,8.3 41.3,8.4 	" fill="#049ccc" style="fill: rgb(4, 156, 204);"></polygon></g><g class="ld ld-breath" style="transform-origin: 50px 50px 0px; animation-duration: 6.1s; animation-delay: -5.612s; animation-direction: normal;"><polygon id="XMLID_1652_" class="st0" points="40.9,8.6 41.1,8.5 41.1,8.4 40.9,8.4 40.8,8.5 40.8,8.6 	" fill="#049ccc" style="fill: rgb(4, 156, 204);"></polygon></g><g class="ld ld-breath" style="transform-origin: 50px 50px 0px; animation-duration: 6.1s; animation-delay: -5.49s; animation-direction: normal;"><polygon id="XMLID_1651_" class="st0" points="43.2,8.5 42.9,8.6 43,8.8 42.9,8.9 42.6,8.9 42.7,8.8 42.7,8.7 42.4,8.7 42.1,8.9 41.8,8.9 41.6,8.8 41.4,8.8 41.2,9 40.8,9.2 41.1,8.9 41,8.9 40.5,9 40.3,8.9 40,9 39.9,9.2 39.8,9.3 40,9.5 39.8,9.7 40.3,9.8 40.5,9.7 40.4,9.6 40.6,9.6 40.8,9.6 41.1,9.6 41.3,9.6 41.6,9.6 42,9.4 42.1,9.4 42.2,9.3 42.3,9.5 42.5,9.5 42.7,9.6 43.3,9.5 43.6,9.5 44.1,9.5 44,9.4 44.2,9.4 44.4,9.4 44.8,9.4 45,9.4 45.1,9.3 45.1,9.2 45.1,9 45.1,9 45.1,8.9 44.9,8.8 45,8.8 44.9,8.6 44.8,8.6 44.7,8.6 44.3,8.6 44.5,8.5 44.5,8.5 44.2,8.4 44.1,8.4 44.1,8.3 44,8.3 43.7,8.3 43.5,8.4 	" fill="#049ccc" style="fill: rgb(4, 156, 204);"></polygon></g><g class="ld ld-breath" style="transform-origin: 50px 50px 0px; animation-duration: 6.1s; animation-delay: -5.368s; animation-direction: normal;"><polygon id="XMLID_1649_" class="st0" points="26.6,22.7 26.2,23 25.1,23.7 24.6,23.9 24.6,24.2 24.3,24.2 24.2,24.4 24.6,24.8 24.9,25 25,25.3 24.6,25.5 24.8,25.6 25.5,25.3 25.5,25.4 25.1,25.9 25.2,26.1 25.3,26.2 25.8,25.7 26,25.3 26.2,24.9 26,24.9 26.4,24.5 26.3,24.1 26.1,24.2 26,23.9 26.2,23.7 26.2,23.5 25.9,23.6 26.4,23.2 26.9,22.9 27.1,22.8 27,22.7 	" fill="#049ccc" style="fill: rgb(4, 156, 204);"></polygon></g><g class="ld ld-breath" style="transform-origin: 50px 50px 0px; animation-duration: 6.1s; animation-delay: -5.246s; animation-direction: normal;"><polygon id="XMLID_1647_" class="st0" points="24.4,23.1 24.5,23 24.5,22.6 24.4,22.2 24.3,22.2 24.2,22.6 24.3,23 	" fill="#049ccc" style="fill: rgb(4, 156, 204);"></polygon></g><g class="ld ld-breath" style="transform-origin: 50px 50px 0px; animation-duration: 6.1s; animation-delay: -5.124s; animation-direction: normal;"><polygon id="XMLID_1646_" class="st0" points="39.7,8.5 40,8.4 40.4,8.3 40.3,8.3 40.4,8.2 40.2,8.2 40.3,8.1 39.8,8.2 39.7,8.3 39.3,8.3 39.2,8.4 39.2,8.6 	" fill="#049ccc" style="fill: rgb(4, 156, 204);"></polygon></g><g class="ld ld-breath" style="transform-origin: 50px 50px 0px; animation-duration: 6.1s; animation-delay: -5.002s; animation-direction: normal;"><polygon id="XMLID_1644_" class="st0" points="42.2,8.3 42.2,8.4 42,8.4 41.7,8.4 41.4,8.5 41.3,8.7 41.3,8.8 41.9,8.8 42.1,8.8 42.3,8.7 42.8,8.6 42.9,8.5 43.1,8.4 43.5,8.3 43.5,8.2 43.3,8.2 43.3,8.2 43.1,8.2 42.8,8.1 42.5,8.2 	" fill="#049ccc" style="fill: rgb(4, 156, 204);"></polygon></g><g class="ld ld-breath" style="transform-origin: 50px 50px 0px; animation-duration: 6.1s; animation-delay: -4.88s; animation-direction: normal;"><polygon id="XMLID_1642_" class="st0" points="37.8,10.3 37.4,10.5 37.4,10.6 37.5,10.6 37.5,10.8 37.5,10.9 37.7,10.8 38,10.5 38.1,10.3 38,10.2 	" fill="#049ccc" style="fill: rgb(4, 156, 204);"></polygon></g><g class="ld ld-breath" style="transform-origin: 50px 50px 0px; animation-duration: 6.1s; animation-delay: -4.758s; animation-direction: normal;"><polygon id="XMLID_1641_" class="st0" points="30.9,13.2 31.1,13.2 31.3,13 31.2,12.9 31.6,12.8 31.8,12.5 32,12.3 32.1,12.1 32,12.1 32.3,11.9 32.4,11.8 31.8,12 31.2,12.3 30.9,12.3 31,12.5 30.6,12.7 30.9,12.7 31.3,12.7 31,12.9 	" fill="#049ccc" style="fill: rgb(4, 156, 204);"></polygon></g><g class="ld ld-breath" style="transform-origin: 50px 50px 0px; animation-duration: 6.1s; animation-delay: -4.636s; animation-direction: normal;"><polygon id="XMLID_1639_" class="st0" points="39.2,8.8 39.5,8.7 39.4,8.7 39.1,8.7 38.8,8.8 38.7,8.9 39,8.9 	" fill="#049ccc" style="fill: rgb(4, 156, 204);"></polygon></g><g class="ld ld-breath" style="transform-origin: 50px 50px 0px; animation-duration: 6.1s; animation-delay: -4.514s; animation-direction: normal;"><polygon id="XMLID_1637_" class="st0" points="30.2,13.1 30,13.3 30,13.4 30.4,13.3 30.5,13.3 30.5,13.1 	" fill="#049ccc" style="fill: rgb(4, 156, 204);"></polygon></g><g class="ld ld-breath" style="transform-origin: 50px 50px 0px; animation-duration: 6.1s; animation-delay: -4.392s; animation-direction: normal;"><polygon id="XMLID_1636_" class="st0" points="34.6,14.3 34.5,14.1 34.9,13.6 34.9,13.4 35.1,12.9 35.6,12.9 36.1,12.5 36.3,12.2 36.5,11.9 36.8,11.6 36.6,11.5 36.9,11.3 37.1,11.1 37.4,10.7 37.1,10.7 36.9,10.6 37.3,10.5 38,10.1 37.7,10 37.1,10.1 37.6,9.8 38,9.8 37.9,9.6 37.6,9.6 37,9.7 36.2,9.9 36.2,10.1 35.9,10.1 35.6,10.2 35.5,10.4 35.3,10.7 35.2,11.2 35.3,11.3 35.6,11.3 35.4,11.5 35.3,11.6 35,11.9 34.8,11.9 34.6,12.3 34.4,12.6 34.2,12.7 33.9,12.9 33.2,13.1 32.8,13.3 32.6,13.4 32.4,13.2 32.3,13 31.7,13.1 31.6,13.4 31.8,13.7 32,13.6 31.8,14 31.6,14.4 31.4,14.4 31.1,14.8 31,15.3 31,15.9 31.2,15.7 31.5,15.3 31.9,14.7 31.6,15.4 31.6,15.7 32.1,15.4 32.7,14.9 32.8,14.8 32.9,14.4 33.2,14.1 33.6,13.9 33.8,14 33.3,14.5 33.2,14.8 34.2,14.6 	" fill="#049ccc" style="fill: rgb(4, 156, 204);"></polygon></g><g class="ld ld-breath" style="transform-origin: 50px 50px 0px; animation-duration: 6.1s; animation-delay: -4.27s; animation-direction: normal;"><polygon id="XMLID_1634_" class="st0" points="38.6,9.8 38.5,10 38.7,10 38.9,10 39.2,9.9 39.5,9.8 39.5,9.6 39.4,9.5 39.3,9.4 39.3,9.3 39.4,9.2 39.5,9.1 39.7,9 40,8.9 40.2,8.8 40.3,8.7 40.5,8.6 40.6,8.4 40.4,8.4 40.1,8.5 40,8.7 39.6,8.8 39.3,8.9 38.9,9 38.6,9.3 38.5,9.5 38.5,9.6 	" fill="#049ccc" style="fill: rgb(4, 156, 204);"></polygon></g><g class="ld ld-breath" style="transform-origin: 50px 50px 0px; animation-duration: 6.1s; animation-delay: -4.148s; animation-direction: normal;"><polygon id="XMLID_1633_" class="st0" points="30,13.8 30,13.8 29.8,14 29.8,14.1 30.1,13.9 30.2,13.8 30.2,13.7 	" fill="#049ccc" style="fill: rgb(4, 156, 204);"></polygon></g><g class="ld ld-breath" style="transform-origin: 50px 50px 0px; animation-duration: 6.1s; animation-delay: -4.026s; animation-direction: normal;"><polygon id="XMLID_1631_" class="st0" points="33.8,12.6 33.9,12.5 34.2,12.4 34.4,12.2 34.2,12.2 33.8,12.3 33.5,12.5 33.6,12.6 " fill="#049ccc" style="fill: rgb(4, 156, 204);"></polygon></g><g class="ld ld-breath" style="transform-origin: 50px 50px 0px; animation-duration: 6.1s; animation-delay: -3.904s; animation-direction: normal;"><polygon id="XMLID_1629_" class="st0" points="37.5,9.4 38.1,9.4 38.3,9.2 38.4,9 38.2,8.9 38,9 37.6,9 37,9.2 36.9,9.4 37.4,9.3 " fill="#049ccc" style="fill: rgb(4, 156, 204);"></polygon></g><g class="ld ld-breath" style="transform-origin: 50px 50px 0px; animation-duration: 6.1s; animation-delay: -3.782s; animation-direction: normal;"><polygon id="XMLID_1627_" class="st0" points="67.1,39 67.6,38.6 67.5,38.5 67.5,38.4 67.7,38 67.3,38.3 66.9,38.4 66.9,38.6 66.9,38.6 66.6,38.7 66.8,39 	" fill="#049ccc" style="fill: rgb(4, 156, 204);"></polygon></g><g class="ld ld-breath" style="transform-origin: 50px 50px 0px; animation-duration: 6.1s; animation-delay: -3.66s; animation-direction: normal;"><polygon id="XMLID_266_" class="st0" points="53.5,25.9 53.7,25.4 53.5,25 52.9,25.3 53,25.6 	" fill="#049ccc" style="fill: rgb(4, 156, 204);"></polygon></g><g class="ld ld-breath" style="transform-origin: 50px 50px 0px; animation-duration: 6.1s; animation-delay: -3.538s; animation-direction: normal;"><polygon id="XMLID_265_" class="st0" points="52.9,35.6 53.1,35 52.9,34.4 52.6,34.7 52.5,34.9 52.7,35.4 	" fill="#049ccc" style="fill: rgb(4, 156, 204);"></polygon></g><g class="ld ld-breath" style="transform-origin: 50px 50px 0px; animation-duration: 6.1s; animation-delay: -3.416s; animation-direction: normal;"><polygon id="XMLID_264_" class="st0" points="47.8,26.1 47.5,25.3 47.5,25.2 47,25.1 47.5,24.6 47.6,24 47.2,24 46.8,24.1 47.3,23.4 46.8,23.4 46.5,23.4 46.1,23.9 45.9,24.5 46,24.9 45.9,25.5 46.2,25.2 46.3,25.4 46.1,25.7 46.2,25.9 46.7,26 46.7,26.1 47,26.5 46.8,26.9 46.8,26.9 46.2,26.8 46.1,27.2 46.3,27.6 45.7,27.8 45.8,28.1 46.5,28.2 46.6,28.2 46.1,28.4 45.3,29.1 45.6,29.2 45.9,29 46.4,29.1 46.7,28.8 46.9,28.9 47.7,28.7 48.4,28.8 48.8,28.4 48.6,28.1 48.9,27.9 49,27.4 48.4,27.3 48.3,27 48.1,26.2 	" fill="#049ccc" style="fill: rgb(4, 156, 204);"></polygon></g><g class="ld ld-breath" style="transform-origin: 50px 50px 0px; animation-duration: 6.1s; animation-delay: -3.294s; animation-direction: normal;"><polygon id="XMLID_263_" class="st0" points="62.4,39.7 63.2,39.5 63.3,39.2 63,39.4 63,39.2 62.5,39.2 62.1,39.4 61.7,39.1 61.7,39.5 62.4,39.5 	" fill="#049ccc" style="fill: rgb(4, 156, 204);"></polygon></g><g class="ld ld-breath" style="transform-origin: 50px 50px 0px; animation-duration: 6.1s; animation-delay: -3.172s; animation-direction: normal;"><polygon id="XMLID_262_" class="st0" points="35.4,18.8 35.7,18.4 36.4,18.1 36.9,17.8 37.2,17.5 37.7,17.2 38.1,17.2 38.5,17.2 38.7,17.2 39.5,17.1 40.3,16.6 40.7,16.5 40.9,16.6 41.7,16.6 42.6,16.3 43.5,16 43.2,15.9 42.7,15.8 43.1,15.6 43.3,15.2 43.3,15.5 43.4,15.8 43.8,15.8 44,15.3 43.9,15 43.7,14.8 43.9,14.7 44.2,15 44.3,14.8 44.3,14.4 44.6,14.4 44.9,14.4 45.1,14.3 45,14 45.4,14.1 45.4,13.6 45.6,13.6 45.8,13.2 45.7,12.9 46.1,12.8 46.3,12.9 46.3,12.6 46.6,12.1 46.9,11.8 47.3,11.5 47,11.5 47.4,11.5 47.6,11.4 48.2,11.2 48.2,11 48,10.9 47.4,10.9 47,11 47.3,10.8 47.3,10.7 47,10.8 46.9,10.6 46.6,10.5 46.6,10.4 47.1,10.5 47.4,10.6 47.7,10.5 47.5,10.1 47,9.9 46.7,9.8 46.5,9.9 46.3,9.8 45.7,9.9 45.5,10 45.3,10.2 45.4,10.1 45.3,10 45.4,9.8 44.9,9.9 45.1,9.8 44.9,9.6 44.6,9.6 44.4,9.5 44.1,9.7 43.9,9.6 43.3,9.6 43,9.7 42.9,9.9 42.6,9.9 42.1,9.9 41.6,9.7 41.3,9.8 41.1,10.1 41.2,10.4 41,10.3 40.7,10.2 40.3,10.5 40.2,10.6 40.3,10.8 40.5,10.9 40.6,11.1 40.5,11.5 40.2,11.6 40.1,11.8 39.5,12.3 39.2,12.6 39,12.8 38.3,13 38.3,13.2 38.5,13.2 38.4,13.4 38.3,13.8 38.1,13.6 38,13.5 37.6,13.7 37.2,13.9 37.2,14.2 37.4,14.2 37.6,14.2 38,14.2 37.5,14.5 37.2,14.6 36.7,14.6 35.9,15 35.8,15.3 35.3,15.5 35,16.1 34.5,16.5 34.3,16.9 33.9,17.7 33.6,18.3 33.5,18.7 33.9,18.9 33.9,19.6 34.3,19.7 34.9,19.2 	" fill="#049ccc" style="fill: rgb(4, 156, 204);"></polygon></g><g class="ld ld-breath" style="transform-origin: 50px 50px 0px; animation-duration: 6.1s; animation-delay: -3.05s; animation-direction: normal;"><polygon id="XMLID_261_" class="st0" points="45.5,26.5 45.8,26 45.4,25.6 45.1,25.6 44.7,25.9 44,26.3 44.1,27 43.6,27.7 44.2,27.9 45.1,27.6 45.5,27 	" fill="#049ccc" style="fill: rgb(4, 156, 204);"></polygon></g><g class="ld ld-breath" style="transform-origin: 50px 50px 0px; animation-duration: 6.1s; animation-delay: -2.928s; animation-direction: normal;"><polygon id="XMLID_255_" class="st0" points="44.5,19.1 44.4,18.7 44.6,18.3 44.1,18.2 43.5,18.4 43.2,18.2 42.7,18.4 42.4,18 42,18 41.6,18.3 42.1,18.6 42,18.7 41.5,18.7 41.9,19.1 41.5,19.3 42.3,19.7 42.6,19.8 42.9,19.8 44,19.5 	" fill="#049ccc" style="fill: rgb(4, 156, 204);"></polygon></g><g class="ld ld-breath" style="transform-origin: 50px 50px 0px; animation-duration: 6.1s; animation-delay: -2.806s; animation-direction: normal;"><polygon id="XMLID_254_" class="st0" points="56.1,38.8 56.6,39 56.7,38.6 56.6,38.4 56.7,37.8 56.3,37.9 55.7,38 55,38 55,38.4 55.8,38.7 	" fill="#049ccc" style="fill: rgb(4, 156, 204);"></polygon></g><g class="ld ld-breath" style="transform-origin: 50px 50px 0px; animation-duration: 6.1s; animation-delay: -2.684s; animation-direction: normal;"><polygon id="XMLID_253_" class="st0" points="52.6,37.3 52.8,37.5 53,37.2 53.3,37.2 53.3,36.2 52.9,35.7 52.7,36 52.3,35.9 52.5,36.4 	" fill="#049ccc" style="fill: rgb(4, 156, 204);"></polygon></g><g class="ld ld-breath" style="transform-origin: 50px 50px 0px; animation-duration: 6.1s; animation-delay: -2.562s; animation-direction: normal;"><polygon id="XMLID_249_" class="st0" points="80,71.4 79.9,71.2 79.7,71 79.5,71.4 79.4,71.8 79.1,72.3 78.9,72.4 78.9,72.6 78.7,73 78.2,73.6 77.8,74.1 77.5,74.1 77.3,74.3 77,74.6 76.7,74.7 76.5,75.1 76.3,75.5 76.2,76.1 76.2,76.5 76.2,76.7 76.1,77.1 75.7,77.7 75.6,77.9 75.4,78 75.1,78.5 75.1,78.9 75.1,79.3 75,79.8 75,80 75.3,80.1 75.6,80.1 76.1,79.7 76.6,79.4 77,78.7 77.5,77.8 78.2,76.5 78.7,75.6 79.1,74.8 79.2,74.2 79.4,74 79.5,73.7 79.5,73.3 79.7,73.1 79.7,73.4 79.9,73.2 80,72.8 79.9,72.6 80,71.8 	" fill="#049ccc" style="fill: rgb(4, 156, 204);"></polygon></g><g class="ld ld-breath" style="transform-origin: 50px 50px 0px; animation-duration: 6.1s; animation-delay: -2.44s; animation-direction: normal;"><polygon id="XMLID_248_" class="st0" points="52.8,12.3 52.5,12.4 52.7,12.6 52.6,12.7 53,12.8 53.2,12.5 52.9,12.5 	" fill="#049ccc" style="fill: rgb(4, 156, 204);"></polygon></g><g class="ld ld-breath" style="transform-origin: 50px 50px 0px; animation-duration: 6.1s; animation-delay: -2.318s; animation-direction: normal;"><polygon id="XMLID_247_" class="st0" points="52.1,11.8 52.2,11.9 52.6,11.9 52.9,11.8 52.9,11.5 52.6,11.4 52.3,11.4 52.2,11.5 52,11.4 51.7,11.6 51.9,11.8 	" fill="#049ccc" style="fill: rgb(4, 156, 204);"></polygon></g><g class="ld ld-breath" style="transform-origin: 50px 50px 0px; animation-duration: 6.1s; animation-delay: -2.196s; animation-direction: normal;"><polygon id="XMLID_242_" class="st0" points="51.4,12.7 51.7,12.8 51.6,12.9 52,13.2 52.2,13.2 52.2,12.8 52.3,12.7 52.2,12.3 52.5,12.1 51.9,11.9 51.7,11.7 51.5,11.8 51.5,11.9 51.3,11.9 51.2,11.8 50.9,12 51,12.3 	" fill="#049ccc" style="fill: rgb(4, 156, 204);"></polygon></g><g class="ld ld-breath" style="transform-origin: 50px 50px 0px; animation-duration: 6.1s; animation-delay: -2.074s; animation-direction: normal;"><polygon id="XMLID_241_" class="st0" points="11.8,42.8 11.8,42.6 11.7,42.4 11.5,42.2 11.5,42.2 11.4,42.5 11.5,42.7 11.7,42.9 " fill="#049ccc" style="fill: rgb(4, 156, 204);"></polygon></g><g class="ld ld-breath" style="transform-origin: 50px 50px 0px; animation-duration: 6.1s; animation-delay: -1.952s; animation-direction: normal;"><polygon id="XMLID_240_" class="st0" points="54.9,10.9 55.1,11 55.2,10.9 55.1,10.8 55.1,10.7 55.2,10.7 55.1,10.6 54.9,10.6 54.9,10.7 55,10.8 54.8,10.7 54.7,10.7 54.6,10.9 54.8,10.8 	" fill="#049ccc" style="fill: rgb(4, 156, 204);"></polygon></g><g class="ld ld-breath" style="transform-origin: 50px 50px 0px; animation-duration: 6.1s; animation-delay: -1.83s; animation-direction: normal;"><polygon id="XMLID_239_" class="st0" points="57.2,8.8 57.3,8.8 57.9,8.8 58.1,8.8 58.3,8.7 58.2,8.5 57.6,8.4 56.9,8.4 56.5,8.5 56.7,8.6 	" fill="#049ccc" style="fill: rgb(4, 156, 204);"></polygon></g><g class="ld ld-breath" style="transform-origin: 50px 50px 0px; animation-duration: 6.1s; animation-delay: -1.708s; animation-direction: normal;"><polygon id="XMLID_238_" class="st0" points="58.9,8.7 58.5,8.3 58.2,8.2 57.9,8.3 57.8,8.4 57.9,8.4 	" fill="#049ccc" style="fill: rgb(4, 156, 204);"></polygon></g><g class="ld ld-breath" style="transform-origin: 50px 50px 0px; animation-duration: 6.1s; animation-delay: -1.586s; animation-direction: normal;"><polygon id="XMLID_237_" class="st0" points="58.7,11.1 58.7,11.3 58.6,11.6 58.6,12 58.7,12.4 58.9,12.5 59.1,13 59.3,13 59.5,13.5 59.8,13.7 59.8,13.9 60.1,14.1 60.5,14.1 60.8,14.2 61.3,14 61.4,13.9 60.6,13.7 60.1,13.4 59.8,12.9 59.4,12.5 59.2,11.9 59.2,11.5 59.2,11.1 59,11 58.7,10.9 	" fill="#049ccc" style="fill: rgb(4, 156, 204);"></polygon></g><g class="ld ld-breath" style="transform-origin: 50px 50px 0px; animation-duration: 6.1s; animation-delay: -1.464s; animation-direction: normal;"><polygon id="XMLID_236_" class="st0" points="11.6,49.4 11.6,49.7 11.5,49.8 11.5,49.9 11.8,50.1 11.9,49.5 11.8,49.4 	" fill="#049ccc" style="fill: rgb(4, 156, 204);"></polygon></g><g class="ld ld-breath" style="transform-origin: 50px 50px 0px; animation-duration: 6.1s; animation-delay: -1.342s; animation-direction: normal;"><path id="XMLID_281_" class="st0" d="M94.8,45.1L94,40.2l-1.2-4.8l-1.7-4.7L89,26.3l-2.5-4.2l-2.9-3.9l-3.3-3.5l-3.6-3.2l-3.9-2.7 l-4.2-2.3l-4.4-1.8l-4.6-1.3l-4.7-0.8L50,2.3l-4.6,0.3l-4.7,0.8l-4.6,1.3l-4.4,1.8l-4.2,2.3l-4,2.7l-3.7,3.1l-3.3,3.5l-3,3.9 l-2.6,4.2l-2.1,4.4l-1.7,4.6L6,40l-0.7,4.9L5,50l0.2,4.9L6,59.8l1.2,4.8l1.7,4.7l2.1,4.4l2.5,4.2l2.9,3.9l3.3,3.5l3.6,3.2l3.9,2.7 l4.2,2.3l4.4,1.8l4.6,1.3l4.7,0.8l4.8,0.3l4.6-0.3l4.7-0.8l4.6-1.3l4.4-1.8l4.2-2.3l4-2.7l3.7-3.1l3.3-3.5l3-3.9l2.6-4.2l2.1-4.4 l1.7-4.6L94,60l0.7-4.9L95,50L94.8,45.1z M76.2,34l-0.5,0.5L75,34.6l-0.4-0.2l-0.5,0l-0.4-0.5l-0.2-0.3l0.1-0.2l0-0.3l-0.2-0.6 l0.3-0.2l-0.2-0.1l-0.2,0l-0.4-0.4l-0.4-0.3l-0.8-0.6l-0.2-0.5l-0.7-0.5l0-0.8l0.3-0.3l-0.1-0.5l0.3-0.3l0.2-0.5l0.4,0l0.3-0.2 l0.3,0.4l0.3,0.7l-0.4,0l-0.2,0.2l0.3,0.5l-0.4,0.1l0.1,0.2l0.3,0.1l0.5,0.5l0.6,0l0.2,0.2l0.1,0.3l0.1,0.2l0.4,0.4l-0.2-0.5 l0.2-0.3l0.3,0.3l0.5,0.3l-0.2,0.4l-0.4,0l0.2,0.6l0.3-0.1l0.2,0.5l0.4,0.1l0.3,0.8l0.3,0.5L76.2,34z M61.3,8.4L61.3,8.4L61,8.3 l-0.1,0L61.3,8.4z M90.1,42.5l0.1,0.8l0-0.1L90.1,42.5L90.1,42.5z M37.7,8.7l0.2,0L37.7,8.7L37.7,8.7z M90.5,54.5L89.8,59l-1.1,4.4 l-1.5,4.2l-1.9,4.1l-2.3,3.8l-2.7,3.5l-3,3.2l-3.3,2.9l-3.6,2.5l-3.8,2.1l-4,1.6l-4.1,1.2l-4.2,0.7L50,93.4l-4.2-0.2l-4.2-0.7 l-4.1-1.2l-4-1.6l-3.8-2.1l-3.6-2.5l-3.3-2.9l-2.8-3l-0.2-0.5l-0.2-0.3L19.4,78l0.1-0.4l0.3-0.2l0.4,0.1l0.2-0.1l0.6,0.1l0.5,0.2 l0-0.3l0.3-0.1l-0.1-0.6l0.3-0.6l-0.1-0.8l0.1-0.2l0-0.4l-0.1-0.9l-0.3-1.2l0.1-0.4l0.1,0l0.3-0.4l0.2-0.6l0.7-0.7l0.2-0.3l0.1-1.1 l-0.1-0.5l-0.3-1l-0.2-0.3l-0.5-0.2l-0.4-0.4l-0.8-1.1l-0.8-0.9l-0.8-0.3l-1-0.8l-0.6,0l0.1-0.4l-0.3-0.5L16.9,62l-0.6-0.6L16,61.7 l0-0.7l-0.8-0.6L15,60.1l0.3-0.4l0-0.5l-0.2-0.3l-0.2-1.4L14.8,57L14.7,57l-0.1-0.3l-0.4-0.9L14,55.4l-0.1-0.2l-0.4-0.5l-0.3-0.2 l-0.1,0.1l-0.4-0.5l-0.1-0.4l-0.2-0.5l-0.1-0.1l0-0.4l-0.2-0.7L12,51.7l-0.1-0.3l-0.2-0.1l0-0.6l-0.2-0.6l-0.2-0.3l0-0.4l0.3,0 L11.2,49l-0.4-0.3l0,0.2L10.6,49l-0.2-0.3l-0.1-0.5l-0.3-0.2l-0.2-0.3l0-0.3l-0.1-0.6l-0.1-0.2l0-0.6l-0.1,0.1l0,0.4l-0.1,0l0-0.8 l0,0l0-0.2l0-0.1l0.7-4.5l0.1-0.4h0l0.1,0.2l0.1,0.1l0.1,0.3l-0.1,0.2l0,0.2l0.2-0.4l0.1,0l0,0.2l0.1,0.1l0.1-0.1l0.1,0.1l0.1,0.1 l0,0.3l0.2-0.2l0-0.4l-0.1-0.2l0.1-0.2l-0.1-0.1l0-0.3l-0.1-0.1l0-0.4L11,39.9L10.9,40l-0.1-0.4l-0.1-0.2l-0.1,0.1l0.1,0.3 l-0.1,0.3l0,0.4l-0.1,0.1l-0.1-0.3l0,0l0.9-3.8l1.5-4.2l1.8-3.7l0.1-0.1l0.1,0.1l0.3-0.2l0.2,0.1l0.4-0.3l0.4-0.7l0.1-0.2l0-0.1 l0.4-0.6l0.1-0.4l0,0.3l0.3-0.4l0.2-0.2l-0.4,0.5l-0.1,0.4l-0.3,0.3l0,0l0.4-0.4l0.2-0.2l0.2-0.2l0.1-0.2l0.2-0.4l-0.1,0.2l0,0.1 l-0.1,0.2l0.4-0.3l0.4-0.4l0-0.1l0.2-0.1l-0.1,0.1l0.1,0.1l0.3,0.1l0.1-0.2l-0.3-0.2l0.2,0l0.1,0.1l0.1,0.1l0.2,0.1l0.1,0.1 l0.2,0.1l0.1-0.2l0.1-0.2l-0.2,0.2l-0.1-0.1l0.2-0.4l0.3-0.3l0.1-0.1l0.4-0.2l0.3,0.1l0.3,0l0.4-0.1l0.1-0.2l0.3,0.2l0.3,0.3 L21.2,25l-0.4,0.5l0.1,0.2l0.6-0.2l0.4,0l0.8,0.1l0.6-0.2l0-0.3l0.3-0.4L22.8,25l-0.4-0.2l0-0.6l0.3-0.5l0.5-0.7l0.5-0.2l0.1-0.4 l-0.3-0.2l-0.8,0.1l-0.9,0.4l-0.2-0.1l0.6-0.3l0.9-0.4l0.4,0l0.5-0.2l0.2,0.2l0.3,0.3l0.3,0.5l0.4,0.2l0.7-0.2l0.5,0.1l0.3-0.1 l0.4-0.1l0.6-0.6l0.1-0.3l-0.1-0.2l0.4-0.5l0-0.3l-0.2-0.4l0.1-0.4l0.1-0.5l0.4-0.3l0.5-0.8l0.6-0.8l0.4-0.5l-0.4,0.1l-0.8,0.4 l-0.5,0l0.3-0.4l0-0.2l0.7-0.6l0.5-0.4L30,15.5l0.2-0.2l0.3-0.4l0.1-0.3l-0.2,0l0-0.2l0.1-0.3l-0.2,0l-1,0.7l-0.6,0.4L28,15.4 l-0.4,0.5l-0.5,0.5l-0.4,0.3l-0.5,0.2L25.7,17l-0.4-0.1l-0.3,0.4l-0.9,0.8l-0.6,0.4l-0.2,0l0.5-0.7l0.6-0.7l0.6-0.5l0.5-0.4l0-0.2 l0-0.3l0.3-0.4L26,15l0.3-0.3l0,0l3.3-2.3l0.9-0.5l0,0.1l0.4-0.2l0.3,0l0,0.2l0.4-0.1l0.3-0.1l0.6-0.1l0.3-0.1l-0.2,0.2l0.1,0.1 l0.5,0l0.3-0.1l0.4-0.2l0.4-0.1l0.3-0.1l0.3-0.3l0.1-0.2l0-0.2L34.5,11l-0.6,0.1l-0.5,0.1l0.5-0.3l0.5-0.2l0.5-0.3l-0.5,0l0.7-0.2 l0.2-0.2l0.3,0l0.8-0.4l0.3-0.2l0.2-0.2l-0.5,0l-0.8,0.2l-0.3,0.2L34.8,10l-0.7,0.2l0-0.1l0.6-0.2l0.1,0l0.3-0.1l0.1-0.1l0,0 l1.2-0.5l0,0l0.2,0.1L37.4,9l0.4-0.2l0.3,0l0.2-0.1l0-0.1l0.2-0.1l-0.2,0l3.3-0.9l0.2,0l0.1,0l0.1,0l0.3,0l0,0l0.1,0.1l0.2-0.1 l0.1,0l0,0l3.3-0.5L50,6.6l4.2,0.2l4.2,0.7l1.2,0.3l0,0L59.4,8l0.1,0.2l0.2,0.1l-0.3,0l0,0.1l-0.2-0.1L59,8.4l0.4,0.2l0.3,0.1 L60,8.8l0,0.1l0.4,0.2l-0.2,0l0.1,0.2l0.2,0.1l0.1,0.2l0.3,0.3l0,0.1l0.4,0.2l0.4,0.1l0,0.2l-0.1,0.2l0.1,0.2l0.7,0.3l0.6,0.2 l-0.5,0l-0.1,0.2l0.2,0.3l0.5,0.2l-0.2,0l-0.6-0.3L62,11.7l0,0.1l0.5,0.2l0.3,0.4l0.6,0.2l0.6,0.4l0.4,0.2l0.2-0.1l0.4,0.3l0.4,0.1 l0.2,0.3l0.3,0.2l0.1,0.2l0.2,0.2l-0.2,0.1l-0.7-0.8l-0.4-0.3l-0.5-0.1l-0.9-0.5l-0.5-0.2l-0.3-0.1l-0.5-0.4l-0.4-0.2L61.4,12 l0.1,0.1l0.5,0.4l0.4,0.5l0.2,0.1l0.6,0.2l0.3,0.2l0.2-0.1l0.1,0.1l0.5,0.1l0.3,0.3l-1.2-0.1l-0.4,0L62.3,14l0.1,0.2l0.5,0.1 l0.2,0.4l-0.5-0.2l0,0.3l-0.3,0.2l0.1,0.2l-0.3,0.1L62,15l-0.2,0l-0.2,0.7l-0.2,0.4l0.3,0.3l-0.2,0.2l-0.3-0.1l-0.3-0.3l0.2-0.2 L60.7,16L60,16l0.4,0.3l0.2,0.3l0.4,0.2l0.2,0.4l-0.4-0.1l-0.2,0l-0.2,0.7l0.5,0.3l-0.1,0.2l-0.9-0.2l0,0.3l0.3,0.2l0.1,0.3 L60,18.9l-0.5-0.1l-0.4-0.6L59,18l-0.7-0.3l0.1-0.1l1.4,0.1l0.3-0.3l0.1-0.4l-0.3-0.3l-0.4-0.2l-1.3-0.3l-0.7,0L56.9,16l-0.1,0.2 L56.4,16l0.2-0.2l-0.9-0.2l-0.3,0.2l-0.4,0l-0.2,0.5l-0.4,0l-0.5,0.3l-0.5,0.8L53,17.8l-0.5,1.1l-0.4,0.8l-0.6,0.6L50.7,21 l-0.3,0.4l0.1,1.4l0.2,0.7l0.6,0.3l0.5-0.2l0.7-0.8l0.3,0.4l0.4,0.9l0.4,0.7l0.2,0.6l0.5-0.1l0.1-0.5l0.5,0l0.1-0.6l-0.1-1.1 l0.4-0.2l0.2-0.7L55,21.9l-0.4-0.4l0-0.9l0.5-0.6l0.3-0.5l-0.2-0.3l0.1-0.4l0.4-0.2l0.5,0.2l0.1,0.2l-0.1,0.2L56,19.8l-0.2,0.4 l0,0.4l0.3,0.5l0.1,0.6l0.4,0.2l0.3,0.3l0.5-0.2l0.5-0.3l0.6-0.2l0.5,0.2l-0.2,0.4l-0.4,0.1l-0.4,0l-0.4,0.2l-0.4,0.2l0.2,0.4 l0.3,0.2l0.1-0.1l0.1,0.4l0.1,0.5L57.7,24l-0.5-0.4L57,23.8l-0.1,0.4l0.1,0.5l0.2,0.5l-0.5,0.3l0,0.3l-0.4,0l-0.1-0.2l-0.4-0.1 L55.3,26l-0.6,0.4l-0.3,0.2l-0.2-0.2l-0.5-0.2l-0.2,0.2L53,26.5l0-0.2l-0.5-0.1l0-0.3l-0.1-0.3l0.3-0.5l0.1,0.1l0.1-0.3l-0.2-0.1 l-0.1-0.2l0.1-0.2l0-0.3l-0.3,0.2l-0.1,0.2l-0.4,0.1l-0.1,0.2l-0.1,0.2l0.1,0.7l0.2,0.4l0,0.4l0.1,0.3l-0.3,0.3l-0.1-0.1l-0.4,0 l-0.1,0.1l-0.4,0l-0.6,0.3l-0.4,1l-0.2,0.2l-0.4,0.1l-0.4,0.1l-0.2,0.6l-1.2,0.5l-0.4-0.3l0.1,0.8L46.4,30l-0.6,0.1l0,0.5l0.7,0.3 l0.3,0.4l0.5,0.8l-0.2,1.5L46.8,34L45.9,34l-0.4,0l-0.6-0.2l-0.7,0l-0.6-0.2l-0.8,0.5l0.2,0.3l-0.1,0.5l0,0.3l0.1,0.3l0,0.3 l-0.2,0.4l-0.1,0.3l-0.3,0.3l-0.1,0.5l0.1,0.3l0.2,0.1l0,0.5l-0.2,0.6l0.3-0.1l0.3,0.1l0.3-0.2l0.5,0.2l0.1,0.5l0.2,0.3l0.3,0.1 l0.3-0.3l0.4-0.2l0.6,0l0.8,0l0.5-0.6l0.5-0.1l0.2-0.5l0.4-0.3l-0.2-0.4l0.2-0.6l0.4-0.4l0.1-0.3l0.7-0.1l0.5-0.5l0-0.4l0.1-0.5 l0.8-0.2l1.1,0.2l0.5-0.4l0.2-0.1l0.3-0.4l0.2-0.1l0.5,0.2l0.3,0.1l0.2,0.7l0.4,0.4l0.5,0.5l0.5,0.3l0.4,0l0.3,0.3L56,36l0.2,0.3 l0.2,0.1l0.2,0.4l0.3,0.4l-0.1,0.2l-0.1,0.4l0,0.2l0.2-0.1l0.2-0.7l0.2-0.1l0-0.4l-0.4-0.2l0.2-0.5l0.5,0.1l0.4,0.3l0.1-0.3 L58.1,36l-0.5-0.3l-0.4-0.2l-0.5-0.2l0.1-0.2l-0.2-0.2l-0.4,0l-0.7-0.6l-0.3-0.6l-0.5-0.3l-0.2-0.4l0-0.2l-0.1-0.4l0.4-0.3l0.4,0.1 l-0.1,0.1l0,0l0,0.3l0.2,0.2l0.1-0.3l0.3,0.1l0,0.2l0.3,0.3L56,33.3l0.5,0.5l0.5,0.2l0.4,0.2l0.5,0.2l0.3,0.1l0.2,0.2l0.1,0 l0.1,0.1l0,0.2l0,0.5l0.1,0.4l0.3,0.2l0,0.2l0.1,0l0.1,0.2l0.4,0.4l0.3,0.3l0.2,0.5l0.3,0.6l0.5,0.3l0.4-0.1L61,38l0.3-0.1 l-0.2-0.4l0.6,0.1l-0.1-0.4L61.2,37l-0.4-0.3l0.2-0.2l-0.3-0.3l-0.2-0.4l0.1-0.2l0.4,0.3l0.3,0l0.2-0.2L61,35.4l0.6-0.3l0.3,0 l0.3,0l0,0.2l0.3,0.3l0.3-0.5l0.2-0.3l0.6-0.2l0-0.2l-0.5-0.2L63,34l-0.3-0.4l0-0.6l0.2-0.3l-0.1-0.9l0.2,0l0.2-0.2L63,31.5 l0.2-0.6l0-0.4l0.4-0.2l0.1,0.3l0.8,0l0.2,0.1L64.4,31l0,0.2l0.6,0.1l0,0.4l0.3,0.1l0.5-0.6l0.4-0.2l0-0.3l-0.4,0.2l-0.3-0.1 l-0.2-0.4l0.3-0.4l0.4-0.1l0.2-0.3l0.3-0.1l0.3-0.2l0.1,0.1l-0.5,0.5l0.4,0.2l-0.1,0.7l-0.3,0.2l0.6,0.3l0.6,0.1l0.8,0.4l0.3,0.2 l0.3,0l0.4,0.2l0.3,0.4l0.1,0.3l-0.4,0.5l-0.4,0.1l-0.5,0.3l-0.8-0.1l-1-0.3l-0.8,0.2l-0.5,0.3l-0.4,0.6l-1,0.1l-0.1,0.6l-0.8,0.2 l-0.4,0.8l0.4,0.3L62.8,37l0.5,0.3l0.5,0.7l0.6-0.1l0.6,0.3l0.4-0.2l0-0.3l0.6-0.1l0.5,0.3l0.8-0.3l0.2-0.5l0.5,0.1l0.3-0.1 l-0.1,0.3l0.3,0.3l0,0.3l0.2,0.6l0,0l-0.1,0.6l0,0.7l0,0l0,0.2l0,0.6l-0.1,0.4l0,0l-0.1,0.3l-0.2,0.3l-0.4,0.1l-0.5-0.1l-0.1,0.3 L67,41.6l-0.4,0l-0.5,0.2L65.9,42l-0.4,0.3l-0.3-0.1l-0.6-0.1L64,42.1l-0.8,0.1L63,42l-0.6,0l-0.2-0.1l-0.2,0l-0.3-0.3l-0.8,0 l-0.4,0.2l-0.4,0.4l-0.1,0.4l0.2,0.6l-0.2,0.4l-0.3,0.2l-0.7-0.3L58,43.2l-0.6-0.1l-0.4-0.7l-0.9-0.3L55.7,42l-0.3,0.1l-0.7-0.2 l-0.2-0.1l-0.2-0.4l-0.3,0L53.8,41l0.4-0.4l0-0.7L54,39.7l0-0.4l0.3-0.4l-0.1-0.1l-0.5,0.3l0-0.4l-0.4-0.1L52.6,39L52.2,39L52,38.9 l-0.6,0l-0.6,0.3l-0.3-0.1l-1,0.1l-1,0.1l-0.6,0.2l-0.4,0.3l-0.7,0.1l-0.6,0.4l-0.3,0l-0.6-0.2l-0.6,0l-0.3-0.4l-0.4,0l-0.2,0.5 L43.3,41l-0.5,0.3l-0.7,0.3L41.7,42l-0.1,0.4l-0.3,0.6l0,1l-0.6,0.6l-0.3,0.2l-0.6,0.5l-0.6,0l-0.4,0.3l0,0l-0.5,0.7l-0.5,0.2 L37.5,47l-0.1,0.4l-0.2,0.4L37,48l-0.4,0.4L36.3,49l0,0.3L36,49.6l-0.3,0.2l-0.1,0.4l-0.1,0.3l0.3,0.4l0.1,0.4l-0.1,0.4l0,0.4 l0,0.8l-0.2,0.7l-0.2,0.4l0,0.4l-0.2,0.4L35,55.2l-0.3,0.1l0.3,0.3l0.2,0.7l-0.1,0.3l0.1,0.6l0,0.2l0.2,0.2l0,0.1l0.1,0.2l0.3,0.1 l0.4,0.4l0.2,0.2l0.1,0.2l0.1,0.4l0.2,0.2l0.2,0.1l0.3,0.3l0.3,0.5l0.1,0.6l0.1,0.3l0.4,0.5l0.5,0.4l0.2,0.1l0.5,0.5l0.6,0.5 l0.6,0.6l0.7,0.4l0.2,0l0.1,0l0.7-0.2l0.5-0.2l0.9-0.1l0.5,0l0.5,0.2l0.3,0l0.7,0.2l0.7-0.2l0.4-0.2l1.2-0.4l0.6-0.1l0.6-0.1l0.7,0 l0.6,0l0.5,0.5l0.2,0.5l0.4,0.5l0.6,0l0.3-0.2l0.3,0l0.8-0.3l0,0.2l0.2,0.1l0.2,0.3l0.3,0.1l0.3,0.5L54.2,66L54,66.9l0.1,0.1 L54,67.5l-0.2,0.5l-0.2,0.2l0,0.2l0.5,0.7l0.5,0.6l0.8,0.7l0.6,0.7l0.2,0.5l0.1,0.2l-0.1,0.1l0.4,0.4l0.1,0.4l0.2,0.6l-0.2,0.3 l0,0.1l0.2,0.4l0.2,0.4l0.2,0.2l0,0.4L57,75.9l-0.2,0.3l-0.4,0.4l-0.2,0.3l-0.3,0.6l-0.1,0.3l-0.3,0.6l-0.1,0.5l0,0.4l0,0.5 l0.5,0.5l0.1,0.4l0.3,0.7l0.3,0.4l0.2,0.2l0.1,0.3l0,0.7l0.1,0.8l0.1,0.4l0.1,0.5l0.2,0.3l0.4,0.3l0.4,0.6l0,0l0.2,0.4l0.3,0.4 L58.9,87l-0.2,0.1l0.1,0.3l-0.1,0.3l0.1,0.1l0-0.1l0.2,0.2l0.2,0l0.2,0.1l0.3,0l0.4-0.2l0.5-0.1l0.7-0.3l0.2,0l0.4-0.1l0.6,0 l0.3-0.1l0.3,0l0.1-0.1l0.3-0.1l0.7-0.3l0.5-0.3l0.5-0.4l0.8-0.6l0.4-0.4l0.2-0.3l0.3-0.3l0.1-0.1l0.5-0.3l0.2-0.3l0.2-0.4l0.3-0.4 l0.1-0.3l-0.1,0l0-0.2l0.3-0.3l0.8-0.5l0.5-0.3l0.3-0.3l0.2-0.3l-0.1-0.1l0.2-0.3l0.2-0.6l-0.1,0.1l0-0.2l0-0.3L70.5,79l0.1-0.4 l0.3-0.2l0.5-0.5l0.3-0.2l0.8-0.8l0.7-0.5l0.6-0.4l0.4-0.5l0.3-0.5l0.3-0.5l0-0.3l0.1-1l0-0.6l0.1-0.7L75,71.6l-0.2-0.1l-0.2-0.6 l-0.2-0.4l0.1-0.3l0-0.2l0.2-0.5l0-0.2l-0.4-0.1l0-0.4l0.3-1l0.3-0.3l0.1-0.5l0.2-0.3l0.1-0.5l0.2-0.1l0.2-0.3l0.4-0.4l0.1-0.2 l0.1-0.4l0.6-1.1l0.5-0.7l0.8-1L79,61l0.6-1.3l0.4-1l0.4-1.3l0.2-1.1l0.2-1l0-0.9l0.1-0.3l-0.1-0.4l0-0.5l0-0.2l-0.2,0.1l-0.2,0.4 l-0.3,0.2L79.9,54l-0.2,0.1l-0.3,0.1l-0.2,0.2L79,54.6L78.5,55l-0.6,0.3l-0.5,0.4l-0.3,0.1l-0.3-0.2l-0.1-0.3l-0.2-0.1l-0.3-0.1 l0.3-0.3l0-0.3l-0.2-0.2l-0.3-0.1l-0.2-0.2l-0.4-0.3l-0.4-0.3l-0.9-0.5l-0.4-0.3l-0.3-0.7L73,51l-0.4-0.2l-0.3-0.1L72,49.8L71.8,49 l0.1-0.2l-0.3-0.7L71.4,48l-0.8-0.5L70.5,47l0.1-0.2l-0.7-0.7l-0.3-0.4l-0.3-0.4l-0.7-1.1l-0.5-0.7l-0.4-0.8l0-0.1l0.7,1l0.3,0.3 l0.2,0.2L69,44l0.1-0.4l0-0.6l0.1-0.3l0,0.1l0,0.3l0,0.3l0,0.4l0.3-0.1l0.4,0.5l0.5,0.5l0.4,0.5l0.2,0.1l0.2,0.4l0,0.2l0.3,0.4 l0.3,0.1l0.3,0.2l0.5,0.8l0.1,0.5l0.2,0.5l0.5,0.6l0.3,0l0.5,0.4l0.3,0.6l0.4,0.6l0.3,0.2l0.1,0.3l0.2,0.2l0.1,0.3l0.1,0.3l0,0.2 l0.1,0.3l-0.1,0.1l0.2,0.3l0.2,0.5l0.1,0.2l0,0.4l0.2,0.4l0.4-0.1l0.2-0.2l0.3-0.1l0.1-0.2l0.1-0.1l0.1-0.2l0.1-0.1l0.4-0.2 l0.3-0.3l0.3-0.4l0.2,0l0.2-0.1l0.4-0.7l0.7-0.7l0.4-0.5l0-0.3l0-0.4l0.3-0.4l0.2-0.1l0.3-0.4l0.3-0.1l0.2-0.3l-0.1-0.3l0.1-0.3 l0.3-0.1l0.1-0.2l0-0.4l0.2-0.4l0.2-0.1l0-0.1l-0.2-0.5l0-0.4l0-0.2l0.2-0.1l0-0.6l0.1-0.3l0-0.2l0-0.5l-0.1-0.2l-0.2,0L82.4,43 l-0.3-0.3l-0.3,0l-0.3,0.1l-0.3-0.1l-0.4-0.4l-0.3-0.6l0-0.2l-0.1-0.3l-0.1,0l0,0.3L80.3,42l-0.2,0.6L80,43.3l-0.3,0.1l-0.4,0.2 L79,43.9l-0.1-0.2l-0.1,0.1l-0.2-0.2l0-0.5l-0.1-0.4l-0.2-0.2l-0.1,0.1V43l0.2,0.5l-0.1-0.2l-0.1-0.2L77.9,43l-0.1-0.2l0-0.3 l-0.1-0.3L77.2,42L77,41.8l-0.3-0.1l-0.4-0.6L76,40.6l0-0.2l-0.2-0.3l0.3-0.1l0.1-0.4l0.4,0.1l0.2-0.2l0.7,0.8L78,41l0.5,0l0.6,0.4 l0.6,0l0.3-0.6l0.3-0.3l0.2,0l0.5,0.8l0.5-0.2l0.5-0.1l0.8-0.2l0.5-0.4l0.5-0.4l0.5-0.6l0.5,0.4l0.3,0.4l0.3,0l0.6,0.3l0.2,0.2 l0,0.4l0.7,0.5l0.2-0.1l0.2-0.8l0.3,0.6l0.3,0.9l0.4,0.9l0.5,1.3l0.5,0.8l0.2,0.4l0.3,0.8l0.3,0.6l0.1,0.2l0.2,0.6l0.3,0.9l0.3,0.4 l0,0.8L90.5,54.5z M64.9,60.5l-0.5-0.3l0.1,0L64.9,60.5z" fill="#049ccc" style="fill: rgb(4, 156, 204);"></path></g></g></g><metadata xmlns:d="https://loading.io/stock/" class="ld ld-breath" style="transform-origin: 50px 50px 0px; animation-duration: 6.1s; animation-delay: -1.22s; animation-direction: normal;">
<d:name class="ld ld-breath" style="transform-origin: 50px 50px 0px; animation-duration: 6.1s; animation-delay: -1.098s; animation-direction: normal;">globe</d:name>
<d:tags class="ld ld-breath" style="transform-origin: 50px 50px 0px; animation-duration: 6.1s; animation-delay: -0.976s; animation-direction: normal;">globe,world map,atlas,earth,planet,visualization,visualize</d:tags>
<d:license class="ld ld-breath" style="transform-origin: 50px 50px 0px; animation-duration: 6.1s; animation-delay: -0.854s; animation-direction: normal;">cc-by</d:license>
<d:slug class="ld ld-breath" style="transform-origin: 50px 50px 0px; animation-duration: 6.1s; animation-delay: -0.732s; animation-direction: normal;">f00uly</d:slug>
</metadata></g></g></g></g><style type="text/css" class="ld ld-breath" style="transform-origin: 50px 50px 0px; animation-duration: 6.1s; animation-delay: -0.61s; animation-direction: normal;">path,ellipse,circle,rect,polygon,polyline,line { stroke-width: 0; }@keyframes ld-breath {
  0% {
    -webkit-transform: scale(0.86);
    transform: scale(0.86);
  }
  50% {
    -webkit-transform: scale(1.06);
    transform: scale(1.06);
  }
  100% {
    -webkit-transform: scale(0.86);
    transform: scale(0.86);
  }
}
@-webkit-keyframes ld-breath {
  0% {
    -webkit-transform: scale(0.86);
    transform: scale(0.86);
  }
  50% {
    -webkit-transform: scale(1.06);
    transform: scale(1.06);
  }
  100% {
    -webkit-transform: scale(0.86);
    transform: scale(0.86);
  }
}
.ld.ld-breath {
  -webkit-animation: ld-breath 1s infinite;
  animation: ld-breath 1s infinite;
}
</style></svg></svg>